<?xml version="1.0" encoding="UTF-8"?>
<!DOCTYPE svg PUBLIC "-//W3C//DTD SVG 1.1//EN" "http://www.w3.org/Graphics/SVG/1.1/DTD/svg11.dtd">
<!-- Creator: CorelDRAW 2020 (64 Bit) -->
<svg xmlns="http://www.w3.org/2000/svg" xml:space="preserve" width="279mm" height="73.712mm" version="1.1" style="shape-rendering:geometricPrecision; text-rendering:geometricPrecision; image-rendering:optimizeQuality; fill-rule:evenodd; clip-rule:evenodd"
viewBox="0 0 27900 7371.2"
 xmlns:xlink="http://www.w3.org/1999/xlink"
 xmlns:xodm="http://www.corel.com/coreldraw/odm/2003">
 <defs>
  <style type="text/css">
   <![CDATA[
    .str0 {stroke:#FEFEFE;stroke-width:7.62;stroke-miterlimit:22.9256}
    .fil1 {fill:#FFAA0F}
    .fil0 {fill:#FEFEFE;fill-rule:nonzero}
   ]]>
  </style>
 </defs>
 <g id="Camada_x0020_1">
  <metadata id="CorelCorpID_0Corel-Layer"/>
  <g id="_2044852029568">
   <path class="fil0 str0" d="M8022.77 2405.53c0,-341.37 80.46,-595.54 241.82,-762.06 160.91,-166.54 405.9,-250.03 735.45,-250.03 331.81,0 577.26,84.41 736.35,252.79 159.55,168.37 239.08,428.08 239.08,779.59 0,351.5 -79.53,611.68 -239.08,780.98 -159.09,169.29 -404.54,254.17 -736.35,254.17 -335.46,0 -582.27,-85.34 -740.45,-255.56 -157.72,-170.22 -236.82,-436.85 -236.82,-799.88zm977.27 -671.65c-176.82,0 -308.64,55.81 -396.36,167.44 -87.28,111.64 -130.91,280.94 -130.91,506.97 0,244.95 42.27,424.39 127.27,538.33 84.54,113.94 217.73,171.15 400,171.15 179.09,0 311.81,-56.75 398.63,-169.76 86.36,-113.02 129.54,-286.93 129.54,-522.19 0,-236.19 -43.18,-410.56 -129.54,-523.11 -86.82,-112.56 -219.54,-168.83 -398.63,-168.83zm2312.24 -301.69l894.08 0c150.9,0 271.36,7.84 360.91,23.52 89.99,15.69 161.36,41.06 214.53,75.2 88.64,57.66 155.92,133.31 201.82,226.49 45.91,93.18 68.64,200.67 68.64,322.45 0,119.01 -18.64,220.96 -55.91,306.3 -37.28,84.88 -94.09,155.46 -170.45,211.27 -64.09,46.13 -137.73,78.88 -220.45,98.26 -83.19,19.38 -210.45,29.06 -381.82,29.06l-499.53 0 0 694.71 -411.82 0 0 -1987.26zm888.63 354.27l-476.81 0 0 586.77 502.26 0c124.54,0 216.81,-23.99 277.27,-72.42 60.45,-47.98 90.46,-121.78 90.46,-220.96 0,-106.56 -29.55,-181.75 -88.64,-226.5 -59.09,-44.74 -160.45,-66.89 -304.54,-66.89zm1942.7 -8.3c-149.54,0 -261.81,37.82 -337.72,113.94 -75.91,75.66 -118.18,191.9 -125.91,348.28l1139.98 1.39 0 344.58 -1142.71 0c0.91,172.99 37.27,297.54 108.64,373.65 71.36,75.65 190.45,113.48 357.72,113.48l676.35 0 0 345.97 -696.34 0c-153.64,0 -274.1,-13.37 -361.82,-39.67 -87.73,-26.75 -170.46,-71.5 -247.73,-134.7 -99.99,-81.18 -174.99,-186.82 -225.45,-316.9 -50,-130.56 -75,-286.01 -75,-467.3 0,-351.51 75,-610.76 225,-777.74 149.54,-167.46 381.82,-250.95 696.8,-250.95l684.54 0 0 345.97 -676.35 0zm2691.33 8.3l-1016.81 0c-109.09,0 -189.08,20.76 -240.45,62.28 -50.91,41.51 -76.36,107.02 -76.36,197.43 0,71.97 21.81,126.4 65,162.38 43.63,35.98 108.63,53.97 194.54,53.97l544.54 0c225.45,0 386.36,43.37 481.81,129.63 95.46,86.72 143.18,230.64 143.18,432.69 0,204.36 -55,354.74 -165.45,450.68 -110,95.96 -283.19,143.93 -519.54,143.93l-1095.89 0 0 -354.27 1030.44 0c117.27,0 199.54,-17.53 247.72,-52.13 47.73,-34.59 71.82,-91.8 71.82,-172.06 0,-83.04 -21.82,-142.08 -65.91,-177.14 -44.09,-35.06 -119.09,-52.59 -225.45,-52.59l-485.91 0c-225.9,0 -390.9,-45.66 -494.99,-137.47 -104.54,-91.33 -156.81,-235.72 -156.81,-433.16 0,-210.81 55,-364.88 164.54,-462.21 110,-97.33 284.09,-146.23 523.18,-146.23l1076.8 0 0 354.27zm1210.89 -13.83c-170.45,0 -293.17,54.89 -368.18,164.68 -74.99,109.79 -112.26,290.61 -112.26,541.56 0,218.19 35.91,371.8 107.72,460.84 71.82,89.03 195.91,133.77 372.72,133.77l675.9 0 0 345.97 -695.89 0c-153.64,0 -274.1,-13.37 -362.27,-39.67 -87.73,-26.75 -170.01,-71.5 -247.28,-134.7 -100.44,-81.18 -175.45,-186.82 -225.9,-316.9 -50.01,-130.56 -75,-286.01 -75,-467.3 0,-351.51 75,-610.76 225,-777.74 150,-167.46 382.27,-250.95 697.26,-250.95l684.08 0 0 340.44 -675.9 0zm1741.8 54.43l-286.37 764.83 583.18 0 -296.81 -764.83zm-202.27 -394.87l436.36 0 834.98 1987.26 -458.17 0 -179.55 -473.29 -850.9 0 -174.54 473.29 -436.81 0 828.63 -1987.26zm2296.78 345.97l-476.81 0 0 1295.32 476.81 0c181.82,0 307.27,-46.59 376.81,-139.31 69.09,-92.72 103.64,-262.48 103.64,-508.35 0,-245.41 -34.55,-414.24 -103.64,-507.88 -69.54,-93.19 -194.99,-139.78 -376.81,-139.78zm-888.63 -345.97l896.36 0c314.99,0 547.72,83.49 697.71,250.95 150,166.98 225.01,426.23 225.01,777.74 0,181.29 -25.01,336.74 -75.01,467.3 -50.45,130.08 -125.45,235.72 -225.9,316.9 -77.27,63.2 -159.55,107.95 -247.72,134.7 -87.73,26.3 -208.64,39.67 -361.82,39.67l-908.63 0 0 -1987.26zm1977.25 973.34c0,-341.37 80.46,-595.54 241.82,-762.06 160.9,-166.54 405.9,-250.03 735.44,-250.03 331.82,0 577.27,84.41 736.36,252.79 159.54,168.37 239.08,428.08 239.08,779.59 0,351.5 -79.54,611.68 -239.08,780.98 -159.09,169.29 -404.54,254.17 -736.36,254.17 -335.45,0 -582.26,-85.34 -740.45,-255.56 -157.71,-170.22 -236.81,-436.85 -236.81,-799.88zm977.26 -671.65c-176.82,0 -308.63,55.81 -396.35,167.44 -87.28,111.64 -130.91,280.94 -130.91,506.97 0,244.95 42.27,424.39 127.26,538.33 84.55,113.94 217.73,171.15 400,171.15 179.08,0 311.82,-56.75 398.63,-169.76 86.36,-113.02 129.55,-286.93 129.55,-522.19 0,-236.19 -43.19,-410.56 -129.55,-523.11 -86.81,-112.56 -219.55,-168.83 -398.63,-168.83zm2173.16 52.58l-505 0 0 500.97 505 0c136.81,0 231.82,-18.91 284.99,-56.74 53.19,-37.82 80,-102.87 80,-195.13 0,-91.33 -25.9,-155.45 -77.73,-192.81 -52.26,-37.37 -147.72,-56.29 -287.26,-56.29zm-916.81 -354.27l1014.08 0c236.36,0 409.53,48.43 519.53,144.84 110.46,96.42 165.46,247.72 165.46,453 0,152.69 -34.09,277.24 -101.82,373.65 -68.18,96.41 -165.9,158.68 -294.08,186.83l488.62 828.94 -463.17 0 -431.81 -780.51 -485 0 0 780.51 -411.81 0 0 -1987.26z"/>
   <path class="fil0" d="M9364.99 3970.77l0 2026.84 808.3 0c331.22,0 449.73,-21.27 598.63,-109.39 255.25,-148.9 385.92,-464.93 385.92,-923.78 0,-340.34 -79,-580.4 -255.25,-765.76 -167.13,-176.25 -334.26,-227.91 -759.69,-227.91l-777.91 0zm325.14 258.3l495.31 0c246.14,0 379.85,48.61 474.05,170.16 97.23,127.63 154.98,349.46 154.98,610.79 0,218.79 -39.51,398.08 -118.52,516.59 -94.19,148.89 -243.09,212.71 -489.23,212.71l-516.59 0 0 -1510.25zm3239.29 -258.3l-571.28 0c-303.87,0 -498.35,48.62 -641.17,158.02 -237.02,185.36 -355.53,483.16 -355.53,896.42 0,300.84 57.74,507.47 194.48,689.79 154.97,206.64 349.45,282.61 708.02,282.61l665.48 0 0 -258.29 -607.74 0c-270.45,0 -407.19,-63.82 -507.47,-237.03 -63.81,-115.47 -94.2,-240.06 -97.24,-395.03l1212.45 0 0 -258.29 -1209.41 0c9.11,-188.41 30.39,-276.53 91.16,-379.84 103.32,-179.29 233.98,-240.06 528.74,-240.06l589.51 0 0 -258.3zm2017.73 -30.39c-352.49,0 -601.67,91.16 -777.92,288.69 -145.86,161.04 -237.02,449.73 -237.02,759.68 0,282.6 75.97,571.28 197.52,729.29 151.93,200.56 422.38,309.96 768.79,309.96 288.69,0 528.75,-75.97 701.95,-221.84 200.56,-173.2 294.76,-431.49 294.76,-826.53 0,-695.87 -312.99,-1039.25 -948.08,-1039.25zm-30.39 258.3c246.14,0 413.26,72.92 516.59,227.9 75.96,109.4 118.51,322.11 118.51,571.28 0,182.33 -27.35,364.65 -66.86,458.85 -88.12,206.64 -279.56,313 -565.2,313 -449.73,0 -644.22,-237.03 -644.22,-787.04 0,-188.4 30.39,-367.69 79.02,-477.08 91.15,-197.52 288.67,-306.91 562.16,-306.91zm2786.51 650.29l-1185.1 0 0 -115.48c0,-370.72 148.9,-504.42 559.13,-504.42l625.97 0 0 -258.3 -598.63 0c-209.67,0 -361.6,15.2 -461.88,45.59 -173.21,57.73 -306.91,170.16 -379.84,319.06 -54.7,112.44 -69.89,212.71 -69.89,440.62l0 1221.57 325.14 0 0 -890.35 1185.1 0 0 -258.29zm1786.77 -878.2l-571.28 0c-303.86,0 -498.35,48.62 -641.16,158.02 -237.02,185.36 -355.53,483.16 -355.53,896.42 0,300.84 57.73,507.47 194.47,689.79 154.98,206.64 349.45,282.61 708.03,282.61l665.47 0 0 -258.29 -607.74 0c-270.44,0 -407.19,-63.82 -507.46,-237.03 -63.82,-115.47 -94.21,-240.06 -97.24,-395.03l1212.44 0 0 -258.29 -1209.41 0c9.12,-188.41 30.39,-276.53 91.17,-379.84 103.31,-179.29 233.98,-240.06 528.73,-240.06l589.51 0 0 -258.3zm683.72 1169.91l322.11 0c480.12,0 650.29,139.79 689.79,565.21 6.08,69.89 9.12,106.35 18.24,206.63 9.11,51.66 12.15,57.74 24.31,85.09l334.26 0c-39.51,-66.86 -39.51,-66.86 -54.7,-306.92 -24.32,-376.8 -103.32,-507.46 -373.77,-625.97 118.51,-30.39 176.25,-57.74 243.1,-115.47 115.47,-94.21 179.29,-243.1 179.29,-416.31 0,-182.32 -79.01,-346.42 -209.67,-443.66 -115.48,-82.04 -282.61,-118.51 -574.33,-118.51l-923.77 0 0 2026.84 325.14 0 0 -856.93zm0 -258.29l0 -653.32 577.37 0c185.36,0 270.44,12.15 325.14,39.5 88.12,48.62 136.74,154.97 136.74,285.64 0,115.47 -36.46,200.55 -112.43,261.33 -60.78,48.62 -161.06,66.85 -349.45,66.85l-577.37 0zm2215.24 -653.32l0 1768.54 325.15 0 0 -1768.54 698.9 0 0 -258.3 -1725.99 0 0 258.3 701.94 0zm787.04 1768.54l343.37 0 215.75 -528.74 960.24 0 206.63 528.74 343.38 0 -805.26 -2026.84 -425.42 0 -838.69 2026.84zm1045.32 -1783.74l370.73 996.7 -759.69 0 388.96 -996.7zm1218.53 1783.74l835.65 0c282.6,0 398.07,-15.19 513.54,-69.9 188.41,-91.16 294.76,-273.48 294.76,-510.5 0,-200.56 -72.92,-376.8 -197.51,-480.12 -112.43,-91.16 -255.26,-118.51 -610.79,-118.51l-121.55 0c-319.06,0 -443.65,-79.01 -443.65,-282.6 0,-109.4 45.57,-200.56 115.47,-249.18 69.89,-42.54 148.89,-57.73 328.18,-57.73l832.62 0 0 -258.3 -832.62 0c-243.1,0 -382.88,24.32 -495.31,85.09 -182.32,103.31 -291.72,297.8 -291.72,525.7 0,185.36 72.93,337.3 206.63,425.42 106.36,72.93 261.34,103.31 513.55,103.31l167.13 0c170.17,0 246.14,6.08 303.87,21.28 118.51,36.47 182.33,142.82 182.33,297.8 0,118.51 -42.55,203.59 -127.63,255.25 -63.81,39.5 -145.86,54.7 -297.8,54.7l-875.15 0 0 258.29z"/>
  </g>
  <g id="_2044852027696">
   <path class="fil1" d="M1945.54 1264.63l1329.73 578.93c-37.04,10.52 -69.7,33.85 -91.5,73.76 -682.27,1248.77 -503.31,2130.57 422.11,2562.18 1055.67,492.36 1830.82,-91.95 2302.01,-1359.83 17.85,-48.04 16.59,-91.74 2.75,-128.71l1281.74 558.04 -1458.14 3349.11c-103.74,238.26 -383.54,348.32 -621.8,244.59l-4380.46 -1907.16c-238.25,-103.73 -348.32,-383.54 -244.58,-621.8l1458.14 -3349.11zm1595.22 694.53l2118.35 922.28c-40.8,16.28 -76.35,49.17 -97.28,102.24 -436.64,1107.14 -1001.44,1513.63 -1768.04,1168.61 -634.39,-285.53 -864.61,-972.29 -253.44,-2079.72 21.3,-38.6 18.49,-78.08 0.41,-113.41z"/>
   <polygon class="fil1" points="2795.22,191.6 7398.95,2195.97 7317.17,2383.82 2713.43,379.44 "/>
  </g>
  <path class="fil0 str0" d="M2206.32 755.25c39.63,-91.04 90.92,-149.35 153.93,-174.75 62.89,-25.44 138.9,-18.84 228.09,19.99 89.81,39.1 146.44,90.54 169.95,154.19 23.63,63.7 15.01,142.34 -25.81,236.09 -40.81,93.75 -92.55,153.76 -155.39,180.11 -62.72,26.4 -139.01,20.12 -228.82,-18.98 -90.79,-39.53 -147.69,-91.38 -170.74,-155.41 -22.92,-63.99 -13.37,-144.42 28.79,-241.24zm342.49 -63.97c-47.86,-20.83 -90.01,-21.48 -126.72,-2.04 -36.59,19.48 -68.05,59.49 -94.3,119.77 -28.44,65.33 -37.84,118.17 -28.06,158.58 9.66,40.35 39.06,71.3 88.39,92.77 48.47,21.11 90.98,21.62 127.61,1.71 36.5,-19.97 68.37,-61.26 95.69,-124.01 27.43,-62.99 35.99,-114.58 25.68,-154.77 -10.43,-40.25 -39.82,-70.9 -88.29,-92.01zm660.86 192.02l242 105.36c40.84,17.78 72.54,34.07 94.95,48.8 22.54,14.79 38.91,29.96 49.34,45.34 17.29,25.82 26.72,53.93 28.32,84.19 1.61,30.26 -4.72,61.6 -18.86,94.08 -13.82,31.74 -30.7,56.74 -50.7,75.1 -19.94,18.25 -43.52,30.37 -70.67,36.26 -22.7,4.75 -46.43,4.81 -71.07,0.23 -24.76,-4.64 -60.34,-17.05 -106.72,-37.25l-135.2 -58.86 -80.67 185.28 -111.46 -48.53 230.74 -530zm199.39 199.2l-129.06 -56.19 -68.13 156.49 135.94 59.19c33.71,14.68 61.47,19.15 83.46,13.36 21.93,-5.67 38.63,-21.82 50.14,-48.27 12.37,-28.42 13.1,-51.95 2.31,-70.86 -10.8,-18.89 -35.67,-36.74 -74.66,-53.72zm526.78 226.72c-40.48,-17.63 -75.26,-20.77 -104.64,-9.41 -29.34,11.23 -54.27,37.25 -74.52,78.04l308.39 134.71 -40.02 91.9 -309.28 -134.66c-19.84,46.24 -24.46,83.75 -13.98,112.46 10.53,28.58 38.37,52.7 83.64,72.41l183.06 79.7 -40.17 92.28 -188.48 -82.06c-41.58,-18.11 -72.63,-35.87 -93.32,-53.22 -20.64,-17.47 -37.83,-39.15 -51.41,-65.12 -17.64,-33.43 -25.67,-70.44 -24.22,-111.08 1.62,-40.71 12.91,-85.12 33.96,-133.46 40.82,-93.75 91.22,-154.06 151.21,-180.91 59.92,-27.04 132.47,-21.94 217.73,15.18l185.28 80.67 -40.17 92.27 -183.06 -79.7zm727.47 319.36l-275.21 -119.82c-29.53,-12.86 -53.59,-16.75 -72.31,-11.73 -18.6,5.07 -33.1,19.54 -43.6,43.66 -8.36,19.19 -8.77,36.28 -1.26,50.96 7.64,14.74 23.14,27.2 46.39,37.32l147.39 64.17c61.02,26.57 99.54,57.09 115.36,91.35 15.76,34.38 11.96,78.39 -11.5,132.27 -23.73,54.5 -56.07,88.12 -97.11,100.7 -40.91,12.63 -93.36,5.01 -157.33,-22.84l-296.61 -129.14 41.13 -94.48 278.9 121.42c31.74,13.82 56.04,18.84 73.1,15.29 16.94,-3.6 30.1,-16.02 39.42,-37.42 9.65,-22.15 10.59,-40.46 2.73,-55.01 -7.86,-14.55 -26.13,-28.06 -54.92,-40.59l-131.51 -57.26c-61.14,-26.62 -100.5,-58.25 -118.01,-95 -17.69,-36.67 -15.08,-81.34 7.85,-134 24.48,-56.22 57.25,-90.83 98.2,-103.88 41.08,-13 93.88,-5.52 158.59,22.65l291.45 126.9 -41.14 94.48zm329.35 139c-46.14,-20.09 -85.73,-19.91 -118.77,0.53 -33.05,20.45 -64.13,64.28 -93.28,131.21 -25.33,58.19 -33.45,103.39 -24.35,135.6 9.1,32.2 37.49,58.75 85.35,79.59l182.94 79.65 -40.17 92.27 -188.36 -82c-41.58,-18.11 -72.63,-35.87 -93.44,-53.27 -20.64,-17.48 -37.71,-39.11 -51.29,-65.07 -17.76,-33.49 -25.79,-70.5 -24.34,-111.13 1.62,-40.71 12.91,-85.12 33.96,-133.47 40.81,-93.75 91.21,-154.05 151.2,-180.91 60.05,-26.98 132.61,-21.88 217.86,15.24l185.16 80.61 -39.53 90.8 -182.94 -79.65zm465.11 219.77l-166.31 170.23 157.85 68.73 8.46 -238.96zm-8.89 -129.14l118.1 51.42 -4.74 628.39 -124.02 -53.99 6.36 -147.38 -230.3 -100.27 -102.2 105.65 -118.23 -51.47 455.03 -432.35zm581.48 362.92l-129.05 -56.19 -150.41 345.46 129.06 56.19c49.21,21.42 88.57,23.78 118.16,7.25 29.47,-16.59 58.53,-57.79 87.08,-123.36 28.49,-65.45 38.75,-114.55 30.92,-147.67 -8,-33.04 -36.55,-60.25 -85.76,-81.68zm-200.34 -196.99l242.61 105.63c85.25,37.12 138.55,86.81 159.7,149.15 21.21,62.21 11.41,140.19 -29.41,233.93 -21.05,48.35 -45.86,86.87 -74.55,115.79 -28.77,28.75 -61.33,48.08 -97.95,57.9 -28.25,7.75 -55.71,9.99 -82.69,6.73 -26.8,-3.32 -61.07,-14.01 -102.53,-32.05l-245.93 -107.08 230.75 -530zm422.14 492.59c39.64,-91.04 90.93,-149.35 153.94,-174.74 62.89,-25.45 138.89,-18.85 228.09,19.98 89.81,39.1 146.44,90.54 169.95,154.19 23.63,63.71 15.01,142.34 -25.81,236.09 -40.81,93.75 -92.56,153.76 -155.4,180.11 -62.71,26.4 -139,20.12 -228.81,-18.98 -90.8,-39.53 -147.69,-91.38 -170.74,-155.41 -22.93,-63.99 -13.37,-144.42 28.78,-241.24zm342.5 -63.96c-47.86,-20.84 -90.02,-21.49 -126.73,-2.05 -36.58,19.48 -68.05,59.49 -94.29,119.78 -28.44,65.32 -37.84,118.16 -28.06,158.57 9.65,40.35 39.05,71.3 88.39,92.77 48.47,21.11 90.98,21.62 127.61,1.71 36.49,-19.97 68.37,-61.26 95.69,-124.01 27.42,-62.99 35.98,-114.58 25.68,-154.77 -10.43,-40.25 -39.82,-70.9 -88.29,-92zm582.08 270.11l-136.68 -59.51 -58.17 133.61 136.68 59.5c37.03,16.13 64.94,22.28 83.73,18.45 18.78,-3.82 33.59,-18 44.31,-42.61 10.6,-24.36 11.03,-44.51 1.35,-60.58 -9.81,-16.13 -33.45,-32.42 -71.22,-48.86zm-207.01 -202.53l274.47 119.5c63.98,27.86 105.23,61.18 123.8,99.86 18.71,38.73 16.02,85.56 -7.81,140.3 -17.73,40.73 -41.42,69.93 -70.95,87.66 -29.64,17.68 -63.32,22.77 -101.29,15.17l36 278.66 -125.36 -54.58 -26.25 -259.05 -131.26 -57.15 -90.63 208.16 -111.47 -48.53 230.75 -530z"/>
  <path class="fil0 str0" d="M995.94 4280.81c51.7,-118.75 118.6,-194.8 200.79,-227.93 82.03,-33.19 181.17,-24.58 297.51,26.07 117.15,51 191.01,118.1 221.68,201.12 30.82,83.09 19.57,185.67 -33.67,307.95 -53.24,122.28 -120.72,200.55 -202.68,234.93 -81.81,34.43 -181.32,26.23 -298.47,-24.77 -118.42,-51.56 -192.64,-119.18 -222.7,-202.71 -29.9,-83.46 -17.44,-188.37 37.54,-314.66zm446.74 -83.43c-62.42,-27.18 -117.41,-28.02 -165.29,-2.68 -47.72,25.43 -88.77,77.61 -123,156.24 -37.1,85.21 -49.35,154.13 -36.6,206.83 12.59,52.64 50.95,93 115.29,121.02 63.23,27.53 118.68,28.19 166.45,2.22 47.6,-26.04 89.19,-79.9 124.82,-161.74 35.77,-82.17 46.93,-149.46 33.49,-201.88 -13.6,-52.51 -51.93,-92.48 -115.16,-120.01zm321.91 459.32c38.36,-88.1 71.74,-150.31 100.45,-186.86 28.55,-36.63 61.35,-62.44 98.34,-77.26 37.92,-15.18 81.65,-19.62 131.05,-13.38 49.4,6.24 106.91,23.64 172.39,52.15l221.61 96.48 -52.4 120.35 -233.81 -101.79c-63.07,-27.46 -114.69,-34.28 -154.94,-20.31 -40.25,13.98 -73.53,50.07 -100.13,108.55l415.73 181.57 -52.19 119.87 -415.94 -181.09 -123.24 283.07 -145.39 -63.3 138.47 -318.05zm1052.88 157.56c-52.8,-22.99 -98.16,-27.08 -136.49,-12.28 -38.25,14.65 -70.79,48.6 -97.2,101.81l402.25 175.7 -52.19 119.87 -403.42 -175.64c-25.88,60.32 -31.9,109.23 -18.24,146.68 13.74,37.28 50.05,68.75 109.1,94.46l238.79 103.96 -52.4 120.35 -245.85 -107.03c-54.23,-23.62 -94.73,-46.78 -121.72,-69.41 -26.92,-22.8 -49.35,-51.08 -67.06,-84.94 -23.01,-43.61 -33.48,-91.89 -31.59,-144.9 2.12,-53.09 16.84,-111.01 44.29,-174.08 53.24,-122.28 118.98,-200.94 197.23,-235.97 78.16,-35.27 172.8,-28.61 284.01,19.81l241.67 105.22 -52.4 120.35 -238.78 -103.96zm688.13 303.03l-178.29 -77.62 -75.87 174.27 178.28 77.62c48.3,21.03 84.71,29.06 109.21,24.07 24.51,-4.98 43.82,-23.48 57.8,-55.58 13.83,-31.78 14.4,-58.06 1.76,-79.02 -12.8,-21.04 -43.63,-42.29 -92.89,-63.74zm-270.02 -264.16l358.01 155.87c83.45,36.33 137.25,79.8 161.48,130.24 24.4,50.52 20.9,111.61 -10.19,183.02 -23.13,53.12 -54.03,91.2 -92.54,114.33 -38.67,23.06 -82.61,29.7 -132.12,19.79l46.95 363.47 -163.51 -71.19 -34.24 -337.89 -171.22 -74.55 -118.21 271.52 -145.39 -63.3 300.98 -691.31zm820.46 501.52l-223.37 -97.25 52.4 -120.35 597.92 260.32 -52.4 120.35 -224.34 -97.67 -248.16 569.99 -150.21 -65.39 248.16 -570zm619.18 288.67l-216.94 222.05 205.89 89.63 11.05 -311.68zm-11.6 -168.45l154.05 67.07 -6.2 819.65 -161.75 -70.42 8.29 -192.24 -300.4 -130.79 -133.3 137.81 -154.21 -67.14 593.52 -563.94zm1027.92 594.14l-358.98 -156.29c-38.51,-16.77 -69.9,-21.85 -94.32,-15.3 -24.26,6.62 -43.17,25.49 -56.86,56.94 -10.9,25.04 -11.44,47.32 -1.65,66.48 9.96,19.22 30.18,35.47 60.51,48.68l192.24 83.7c79.6,34.65 129.84,74.47 150.47,119.15 20.57,44.84 15.62,102.24 -14.98,172.53 -30.95,71.09 -73.15,114.95 -126.68,131.35 -53.36,16.47 -121.77,6.54 -205.21,-29.8l-386.9 -168.44 53.66 -123.24 363.79 158.38c41.4,18.03 73.1,24.58 95.35,19.95 22.09,-4.7 39.26,-20.9 51.41,-48.82 12.58,-28.88 13.82,-52.78 3.56,-71.75 -10.25,-18.97 -34.08,-36.6 -71.63,-52.95l-171.54 -74.69c-79.75,-34.72 -131.09,-75.96 -153.93,-123.9 -23.08,-47.84 -19.66,-106.1 10.24,-174.79 31.93,-73.33 74.68,-118.48 128.1,-135.5 53.57,-16.95 122.44,-7.2 206.84,29.55l380.16 165.51 -53.65 123.25z"/>
 </g>
</svg>
